<svg width="340" height="339" viewBox="0 0 340 339" fill="none" xmlns="http://www.w3.org/2000/svg">
<path d="M305.481 0H10.5817C4.73757 0 0 4.74369 0 10.5953V305.876C0 311.727 4.73757 316.471 10.5817 316.471H305.481C311.325 316.471 316.062 311.727 316.062 305.876V10.5953C316.062 4.74369 311.325 0 305.481 0Z" fill="#232F41"/>
<path d="M258.85 57.0367C242.844 49.0947 173.219 25.4466 153.212 70.499C146.827 84.9051 155.915 118.668 157.587 129.797C159.258 140.927 145.28 221.469 150.597 231.797C155.915 242.126 165.234 227.47 165.234 227.47C165.234 227.47 170.569 246.097 176.527 246.435C182.485 246.773 185.988 231.121 185.988 231.121C185.988 231.121 187.5 243.105 197.797 240.772C208.094 238.44 213.803 229.126 213.803 229.126C213.803 229.126 223.317 242.108 231.96 238.457C240.604 234.807 243.929 225.137 243.929 225.137C243.929 225.137 248.607 238.386 257.232 229.803C265.857 221.22 318.214 86.5256 258.85 57.0367Z" fill="#160C08"/>
<path d="M169.253 50.8219C182.324 69.4127 195.769 88.3063 214.692 101.412C233.697 114.356 256.022 121.546 279 122.122C292.814 122.503 306.606 120.78 319.904 117.012C320.139 116.948 320.34 116.793 320.462 116.581C320.584 116.369 320.616 116.117 320.553 115.881C320.489 115.645 320.334 115.444 320.123 115.322C319.911 115.2 319.659 115.167 319.423 115.231C296.371 121.916 271.914 122.027 248.802 115.551C238.298 112.512 228.28 107.991 219.049 102.125C209.653 95.9885 201.154 88.5751 193.795 80.0971C185.565 70.4453 177.882 60.3386 170.782 49.8247C170.124 48.8988 168.577 49.8247 169.253 50.7329V50.8219Z" fill="#231712"/>
<path d="M163.029 60.0817C155.524 77.6041 152.625 96.5866 151.238 115.48C150.828 120.911 150.562 126.343 150.313 131.774C150.313 132.914 152.091 132.914 152.091 131.774C152.909 113.041 154.225 94.1471 159.294 76.0371C160.749 70.9063 162.531 65.8743 164.629 60.9721C165.074 59.9215 163.544 59.0133 163.1 60.0817H163.029Z" fill="#231712"/>
<path d="M195.84 44.6428C204.519 60.3667 218.729 72.0482 234.575 79.9547C243.018 84.1155 251.86 87.4089 260.967 89.7843C270.4 92.4329 280.214 93.4565 289.991 92.8115C300.621 91.7933 310.963 88.7724 320.473 83.9079C321.486 83.3915 320.597 81.8601 319.566 82.3765C311.26 86.5881 302.31 89.3807 293.085 90.639C283.564 91.7207 273.926 91.0813 264.63 88.7515C247.059 84.6202 229.595 77.1946 215.706 65.4952C208.35 59.4135 202.171 52.0318 197.477 43.7169C196.925 42.7018 195.396 43.61 195.947 44.6072L195.84 44.6428Z" fill="#231712"/>
<path d="M213.234 46.1209C221.059 54.5081 229.239 62.9487 239.697 67.9704C249.74 72.5091 260.696 74.6605 271.708 74.2564C277.964 74.1259 284.198 73.4767 290.346 72.3154C291.467 72.1017 290.986 70.3922 289.866 70.5347C279.149 72.6896 268.145 73.0088 257.321 71.4784C252.003 70.657 246.814 69.1486 241.884 66.991C236.869 64.684 232.2 61.6872 228.012 58.0874C223.225 53.9134 218.693 49.4535 214.443 44.7319C213.66 43.8771 212.398 45.1415 213.18 45.9784L213.234 46.1209Z" fill="#231712"/>
<path d="M169.057 157.968C164.185 182.756 155.381 206.76 152.909 231.993C152.234 238.92 151.842 246.079 153.941 252.792C154.279 253.878 156.004 253.415 155.719 252.311C153.816 246.275 154.048 239.846 154.581 233.667C155.141 227.486 156.032 221.34 157.249 215.254C159.65 203.021 163.011 191.001 166.141 178.928C167.919 172.143 169.52 165.323 170.871 158.449C171.103 157.327 169.378 156.846 169.093 157.968H169.057Z" fill="#231712"/>
<path d="M183.729 164.112C181.534 189.816 180.768 215.623 181.435 241.413C181.894 248.542 181.655 255.699 180.724 262.782C180.528 263.904 182.253 264.385 182.502 263.245C183.395 257.013 183.675 250.709 183.338 244.423C183.178 237.923 183.054 231.406 183.036 224.835C183.036 211.907 183.368 198.984 184.032 186.068C184.423 178.708 184.933 171.377 185.561 164.076C185.65 162.937 183.872 162.937 183.783 164.076L183.729 164.112Z" fill="#231712"/>
<path d="M194.382 169.899C191.435 193.617 191.621 217.62 194.934 241.289C195.876 247.949 197.05 254.591 198.49 261.162C198.722 262.283 200.447 261.82 200.269 260.699C195.251 237.496 193.301 213.733 194.471 190.021C194.803 183.29 195.396 176.583 196.25 169.899C196.374 168.76 194.596 168.777 194.471 169.899H194.382Z" fill="#231712"/>
<path d="M219.956 158.04C226.447 182.311 231.978 207.17 231.427 232.456C231.298 239.548 230.632 246.62 229.435 253.611C229.239 254.733 230.947 255.214 231.213 254.092C235.588 228.895 232.512 203.199 226.945 178.465C225.362 171.448 223.584 164.504 221.734 157.559C221.671 157.323 221.516 157.122 221.304 157C221.092 156.878 220.841 156.845 220.605 156.909C220.369 156.973 220.168 157.128 220.047 157.34C219.925 157.552 219.892 157.803 219.956 158.04V158.04Z" fill="#231712"/>
<path d="M227.283 162.313C236.535 184.239 241.845 207.63 242.969 231.406C243.277 238.101 243.277 244.791 242.969 251.474C242.969 252.614 244.747 252.614 244.747 251.474C245.995 227.468 242.984 203.431 235.855 180.477C233.855 174.011 231.528 167.652 228.884 161.423C228.439 160.372 226.91 161.263 227.336 162.313H227.283Z" fill="#231712"/>
<path d="M174.713 44.536C188.602 63.8213 202.936 83.712 222.837 97.2099C241.287 109.575 263.023 116.102 285.224 115.943C297.685 115.913 310.045 113.714 321.753 109.444C322.82 109.052 322.358 107.324 321.273 107.663C300.685 115.084 278.339 116.109 257.161 110.601C246.611 107.925 236.535 103.643 227.283 97.9044C217.516 91.637 208.67 84.0373 200.998 75.3248C192.164 65.2099 183.899 54.61 176.242 43.5744C175.584 42.6484 174.037 43.5744 174.713 44.4648V44.536Z" fill="#231712"/>
<path d="M153.212 78.174C173.219 33.1037 242.88 56.8052 258.85 64.6938C278.751 74.5947 286.096 96.3196 286.754 121.143C287.447 93.2211 280.778 67.9882 258.85 57.0367C242.844 49.0947 173.219 25.4466 153.212 70.499C151.202 75.0399 150.722 81.5039 151.078 88.5912C151.182 85.0214 151.904 81.4967 153.212 78.174V78.174Z" fill="#231712"/>
<path d="M157.587 137.419V137.098C156.271 157.06 148.606 206.404 149.513 225.333C150.366 198.872 158.903 146.251 157.587 137.419Z" fill="#231712"/>
<path d="M340 327.654L332.193 149.581C332.193 149.581 301.853 137.543 288.568 151.807L248.198 194.188C248.198 194.188 231.48 207.651 228.546 228.788C225.611 249.925 237.438 325.784 256.787 334.065C282.841 345.248 302.582 330.646 306.797 317.7L308.753 327.707L340 327.654Z" fill="#7B00DB"/>
<g style="mix-blend-mode:multiply">
<g style="mix-blend-mode:multiply">
<path d="M312.381 277.473C315.564 282.94 313.555 311.503 305.89 317.646L308.753 327.654H340L337.101 261.767C334.026 262.846 331.05 264.193 328.209 265.791C324.296 268.409 312.381 277.473 312.381 277.473Z" fill="#DADAD9"/>
</g>
</g>
<path d="M281.259 258.028C275.052 259.256 271.068 265.934 268.667 271.241C266.073 277.457 264.28 283.98 263.332 290.65C263.136 291.772 264.844 292.253 265.11 291.131C266.002 284.87 267.631 278.737 269.966 272.861C271.172 269.958 272.756 267.227 274.678 264.741C276.388 262.295 278.909 260.534 281.792 259.773C282.912 259.559 282.432 257.832 281.312 257.992L281.259 258.028Z" fill="black"/>
<path d="M265.697 280.554C262.711 282.652 260.162 285.314 258.192 288.389C257.588 289.368 259.117 290.259 259.739 289.279C261.54 286.478 263.872 284.057 266.604 282.156C266.803 282.034 266.947 281.84 267.006 281.615C267.066 281.39 267.036 281.15 266.924 280.945C266.802 280.742 266.605 280.595 266.376 280.535C266.147 280.475 265.903 280.507 265.697 280.625V280.554Z" fill="black"/>
<path d="M268.187 275.354C263.272 273.055 259.444 268.928 257.516 263.85C255.346 257.76 255.259 251.12 257.267 244.975C257.299 244.858 257.307 244.736 257.292 244.616C257.276 244.496 257.237 244.38 257.177 244.275C257.117 244.17 257.036 244.078 256.94 244.004C256.845 243.93 256.735 243.876 256.618 243.844C256.502 243.812 256.38 243.804 256.26 243.82C256.14 243.835 256.024 243.874 255.919 243.935C255.814 243.995 255.722 244.076 255.649 244.172C255.575 244.267 255.521 244.377 255.489 244.494C253.345 251.057 253.47 258.151 255.845 264.634C257.914 270.009 261.953 274.391 267.138 276.885C268.169 277.366 269.076 275.835 268.045 275.354H268.187Z" fill="black"/>
<path d="M283.144 248.02C276.403 250.922 276.154 266.913 279 273.36C281.845 279.806 298.314 289.386 310.549 284.596C321.86 280.144 321.558 263.975 318.019 258.33C314.48 252.685 300.643 240.434 283.144 248.02Z" fill="#9DA0B7"/>
<path d="M260.06 165.59C253.888 172.499 236.655 188.294 241.937 203.484C247.219 218.673 280.138 231.406 299.736 214.97C319.335 198.533 313.697 158.218 299.47 151.576C288.888 146.625 260.06 165.59 260.06 165.59Z" fill="#9DA0B7"/>
<path d="M251.505 136.119L271.744 161.993C271.744 161.993 289.67 155.226 294.739 164.219C299.808 173.211 301.408 190.289 289.831 202.237C278.253 214.186 255.791 205.069 252.768 198.444C249.745 191.82 255.098 182.097 255.098 182.097L219.174 164.29" fill="#E3BB94"/>
<g style="mix-blend-mode:multiply">
<g style="mix-blend-mode:multiply">
<path d="M251.505 136.119L219.245 164.272L253.035 181.011C258.342 171.494 262.219 161.245 264.541 150.596L251.505 136.119Z" fill="#DADAD9"/>
</g>
</g>
<path d="M169.982 76.8562C169.982 76.8562 162.868 83.9791 161.09 99.2043C159.312 114.43 165.091 123.476 164.273 131.257C163.455 139.039 160.823 159.055 170.071 171.555C175.086 178.322 186.077 186.709 198.224 187.582C236.371 190.128 258.815 144.72 258.815 144.72C258.815 144.72 267.707 157.399 278.04 148.157C288.372 138.915 289.635 120.039 279.444 116.103C269.254 112.168 260.54 124.152 260.54 124.152C260.54 124.152 230.057 138.719 169.982 76.8562Z" fill="#E3BB94"/>
<path d="M250.669 122.692C251.897 128.177 251.15 134.035 253.035 139.324C253.115 139.703 253.277 140.058 253.511 140.366C253.745 140.674 254.044 140.926 254.386 141.105C255.525 141.532 256.627 140.41 257.232 139.324C258.527 136.839 259.398 134.155 259.811 131.382C260.634 126.892 261.086 122.342 261.162 117.777" fill="black"/>
<path d="M185.792 131.596C185.792 131.596 188.46 123.191 182.787 119.131C177.114 115.071 171.938 115.106 168.897 117.118C165.856 119.131 162.744 125.256 163.438 127.963" fill="black"/>
<path d="M174.677 140.927C180.924 140.927 185.988 135.856 185.988 129.601C185.988 123.347 180.924 118.276 174.677 118.276C168.43 118.276 163.366 123.347 163.366 129.601C163.366 135.856 168.43 140.927 174.677 140.927Z" fill="white"/>
<path d="M166.817 137.722C168.324 138.799 170.105 139.426 171.954 139.531C173.803 139.636 175.643 139.214 177.262 138.315C178.882 137.415 180.213 136.075 181.103 134.449C181.992 132.823 182.404 130.978 182.289 129.127C182.174 127.276 181.538 125.496 180.455 123.993C179.371 122.489 177.884 121.324 176.166 120.632C174.448 119.94 172.57 119.75 170.748 120.083C168.927 120.416 167.237 121.259 165.874 122.514C165.817 122.565 165.769 122.625 165.732 122.692C164.032 124.891 163.203 127.641 163.404 130.415C163.604 133.188 164.819 135.79 166.817 137.722V137.722Z" fill="black"/>
<path d="M226.856 128.141C226.856 128.141 229.524 119.754 223.851 115.676C218.178 111.598 212.985 111.652 209.943 113.646C206.902 115.64 203.79 121.802 204.501 124.508" fill="black"/>
<path d="M215.741 137.454C221.988 137.454 227.052 132.384 227.052 126.129C227.052 119.874 221.988 114.804 215.741 114.804C209.494 114.804 204.43 119.874 204.43 126.129C204.43 132.384 209.494 137.454 215.741 137.454Z" fill="white"/>
<path d="M207.845 134.267C209.354 135.35 211.139 135.983 212.993 136.091C214.847 136.2 216.693 135.779 218.318 134.879C219.943 133.979 221.279 132.636 222.172 131.006C223.065 129.376 223.478 127.525 223.363 125.67C223.248 123.814 222.61 122.029 221.522 120.522C220.435 119.015 218.943 117.847 217.219 117.155C215.496 116.463 213.612 116.275 211.785 116.612C209.959 116.949 208.266 117.798 206.902 119.059L206.76 119.22C205.071 121.426 204.248 124.177 204.448 126.95C204.648 129.723 205.857 132.326 207.845 134.267V134.267Z" fill="black"/>
<path d="M161.641 103.193C167.261 98.1359 175.442 94.5388 182.716 98.314C183.729 98.8482 184.636 97.2989 183.623 96.7825C175.584 92.6156 166.639 96.3017 160.379 101.929C159.525 102.695 160.788 103.959 161.641 103.193V103.193Z" fill="black"/>
<path d="M288.283 126.734C285.135 120.805 277.097 123.173 272.509 125.737C267.469 128.59 263.539 133.064 261.358 138.434C260.931 139.502 262.656 139.965 263.136 138.915C265.039 134.299 268.351 130.403 272.598 127.785C276.368 125.452 284.015 122.354 286.825 127.643C287.359 128.658 288.906 127.749 288.372 126.734H288.283Z" fill="black"/>
<path opacity="0.5" d="M167.866 158.948C172.6 158.948 176.438 155.105 176.438 150.365C176.438 145.624 172.6 141.782 167.866 141.782C163.132 141.782 159.294 145.624 159.294 150.365C159.294 155.105 163.132 158.948 167.866 158.948Z" fill="#D5613B"/>
<path d="M265.84 133.127L266.373 133.287C266.472 133.318 266.568 133.36 266.658 133.412C266.969 133.556 267.267 133.729 267.547 133.929C267.777 134.112 267.997 134.308 268.205 134.516C268.427 134.737 268.624 134.982 268.792 135.246C269.171 135.782 269.443 136.387 269.592 137.027L269.699 137.526C269.699 137.704 269.699 137.526 269.699 137.65C269.699 137.775 269.699 137.811 269.699 137.882C269.725 138.237 269.725 138.595 269.699 138.95C269.699 139.186 269.792 139.413 269.959 139.58C270.126 139.747 270.352 139.841 270.588 139.841C270.822 139.836 271.046 139.741 271.212 139.575C271.377 139.409 271.473 139.185 271.477 138.95C271.626 137.292 271.189 135.634 270.244 134.265C269.298 132.895 267.904 131.9 266.302 131.453C266.076 131.398 265.837 131.432 265.635 131.548C265.433 131.664 265.283 131.853 265.217 132.077C265.157 132.306 265.188 132.549 265.304 132.755C265.42 132.962 265.612 133.114 265.84 133.181V133.127Z" fill="black"/>
<path d="M194.187 116.798C196.801 117.225 198.562 136.6 195.787 137.49C193.013 138.38 182.2 132.308 183.818 131.347C186.072 130.46 188.416 129.821 190.808 129.441C190.808 129.441 191.11 116.299 194.187 116.798Z" fill="#D5613B"/>
<path d="M187.802 153.16C189.394 154.247 191.234 154.914 193.152 155.101C195.07 155.288 197.004 154.988 198.775 154.229C200.676 153.484 202.47 152.49 204.11 151.273C205.846 150.283 207.283 148.844 208.272 147.106C208.734 146.073 207.205 145.165 206.742 146.198C205.861 147.691 204.596 148.921 203.079 149.759C201.604 150.864 199.989 151.768 198.277 152.448C196.735 153.131 195.044 153.405 193.366 153.246C191.688 153.087 190.078 152.5 188.691 151.54C187.767 150.845 186.913 152.395 187.784 153.089L187.802 153.16Z" fill="black"/>
<path d="M205.711 146.02C206.513 146.419 207.291 146.865 208.041 147.355L209.108 148.103L209.374 148.299L209.499 148.406L210.032 148.851C210.105 148.96 210.201 149.051 210.314 149.118C210.426 149.185 210.551 149.226 210.681 149.239C210.811 149.252 210.943 149.237 211.066 149.193C211.189 149.15 211.301 149.079 211.394 148.988C211.487 148.896 211.559 148.784 211.604 148.662C211.649 148.539 211.667 148.408 211.656 148.277C211.645 148.147 211.605 148.021 211.54 147.908C211.474 147.794 211.385 147.697 211.277 147.622C209.827 146.392 208.24 145.335 206.547 144.47C206.34 144.357 206.098 144.327 205.87 144.387C205.642 144.447 205.445 144.591 205.32 144.791C205.202 144.997 205.17 145.241 205.23 145.471C205.289 145.7 205.437 145.897 205.64 146.02H205.711Z" fill="black"/>
<path opacity="0.5" d="M234.397 147.978C239.131 147.978 242.969 144.136 242.969 139.395C242.969 134.655 239.131 130.812 234.397 130.812C229.663 130.812 225.825 134.655 225.825 139.395C225.825 144.136 229.663 147.978 234.397 147.978Z" fill="#D5613B"/>
<g style="mix-blend-mode:multiply">
<g style="mix-blend-mode:multiply">
<path d="M228.546 141.123C228.782 141.123 229.008 141.029 229.175 140.862C229.341 140.695 229.435 140.468 229.435 140.232C229.435 139.996 229.341 139.77 229.175 139.603C229.008 139.436 228.782 139.342 228.546 139.342C228.31 139.342 228.084 139.436 227.917 139.603C227.75 139.77 227.657 139.996 227.657 140.232C227.657 140.468 227.75 140.695 227.917 140.862C228.084 141.029 228.31 141.123 228.546 141.123Z" fill="#DADAD9"/>
</g>
</g>
<g style="mix-blend-mode:multiply">
<g style="mix-blend-mode:multiply">
<path d="M232.814 135.923C233.05 135.923 233.276 135.829 233.443 135.662C233.61 135.495 233.703 135.269 233.703 135.033C233.703 134.796 233.61 134.57 233.443 134.403C233.276 134.236 233.05 134.142 232.814 134.142C232.578 134.142 232.352 134.236 232.185 134.403C232.019 134.57 231.925 134.796 231.925 135.033C231.925 135.269 232.019 135.495 232.185 135.662C232.352 135.829 232.578 135.923 232.814 135.923Z" fill="#DADAD9"/>
</g>
</g>
<g style="mix-blend-mode:multiply">
<g style="mix-blend-mode:multiply">
<path d="M237.456 141.693C237.692 141.693 237.918 141.599 238.085 141.432C238.251 141.265 238.345 141.038 238.345 140.802C238.345 140.566 238.251 140.34 238.085 140.173C237.918 140.006 237.692 139.912 237.456 139.912C237.22 139.912 236.994 140.006 236.827 140.173C236.66 140.34 236.567 140.566 236.567 140.802C236.567 141.038 236.66 141.265 236.827 141.432C236.994 141.599 237.22 141.693 237.456 141.693Z" fill="#DADAD9"/>
</g>
</g>
<g style="mix-blend-mode:multiply">
<g style="mix-blend-mode:multiply">
<path d="M167.688 150.418C167.924 150.418 168.15 150.324 168.317 150.157C168.484 149.99 168.577 149.764 168.577 149.528C168.577 149.292 168.484 149.065 168.317 148.898C168.15 148.731 167.924 148.637 167.688 148.637C167.452 148.637 167.226 148.731 167.059 148.898C166.892 149.065 166.799 149.292 166.799 149.528C166.799 149.764 166.892 149.99 167.059 150.157C167.226 150.324 167.452 150.418 167.688 150.418Z" fill="#DADAD9"/>
</g>
</g>
<g style="mix-blend-mode:multiply">
<g style="mix-blend-mode:multiply">
<path d="M170.213 145.361L170.018 145.557C169.933 145.633 169.871 145.732 169.84 145.842C169.793 145.948 169.769 146.063 169.769 146.18C169.769 146.296 169.793 146.412 169.84 146.518C169.866 146.63 169.928 146.731 170.018 146.803L170.196 146.946C170.335 147.031 170.495 147.074 170.658 147.07H170.889C171.04 147.036 171.177 146.955 171.28 146.839L171.458 146.661C171.545 146.582 171.612 146.485 171.654 146.376C171.68 146.265 171.68 146.149 171.654 146.038C171.681 145.92 171.681 145.799 171.654 145.681C171.612 145.572 171.545 145.475 171.458 145.396L171.28 145.254C171.144 145.181 170.991 145.144 170.836 145.147H170.605C170.458 145.192 170.323 145.271 170.213 145.379V145.361Z" fill="#DADAD9"/>
</g>
</g>
<g style="mix-blend-mode:multiply">
<g style="mix-blend-mode:multiply">
<path d="M173.628 152.644C173.864 152.644 174.09 152.55 174.257 152.383C174.423 152.216 174.517 151.99 174.517 151.754C174.517 151.518 174.423 151.291 174.257 151.124C174.09 150.957 173.864 150.863 173.628 150.863C173.392 150.863 173.166 150.957 172.999 151.124C172.832 151.291 172.739 151.518 172.739 151.754C172.739 151.99 172.832 152.216 172.999 152.383C173.166 152.55 173.392 152.644 173.628 152.644Z" fill="#DADAD9"/>
</g>
</g>
<path d="M283.482 233.934C282.507 234.946 281.901 236.257 281.762 237.657C281.623 239.056 281.96 240.461 282.717 241.645C283.373 242.58 284.192 243.388 285.136 244.031C285.136 244.031 281.792 247.735 282.432 251.368C282.746 252.526 283.322 253.598 284.114 254.499C284.906 255.401 285.895 256.108 287.003 256.567C287.003 256.567 285.1 259.844 286.203 262.301C287.305 264.759 291.307 265.364 291.307 265.364C290.852 266.493 290.718 267.725 290.919 268.926C291.12 270.126 291.648 271.248 292.445 272.166C295.219 274.98 299.096 273.751 300.217 273.716C301.337 273.68 317.645 270.243 319.868 267.519C320.513 266.535 320.857 265.384 320.857 264.207C320.857 263.03 320.513 261.878 319.868 260.894C319.36 260.288 318.687 259.842 317.93 259.612C317.93 259.612 319.922 258.597 320.313 257.6C320.704 256.603 320.757 253.398 319.673 252.561C318.998 252.015 318.22 251.614 317.385 251.381C316.55 251.148 315.676 251.089 314.818 251.207C314.818 251.207 319.086 250.442 320.153 248.875C321.22 247.307 320.153 242.286 319.548 241.752C317.681 241.094 315.758 240.605 313.804 240.291C313.804 240.291 318.855 238.511 319.139 236.588C319.424 234.664 319.424 231.245 316.311 229.839C313.199 228.432 286.878 231.192 283.482 233.934Z" fill="#E3BB94"/>
<path d="M292.765 243.639C302.724 242.06 312.737 240.826 322.803 239.935C323.923 239.828 323.941 238.048 322.803 238.155C312.594 239.045 302.422 240.297 292.285 241.912C291.164 242.09 291.645 243.817 292.765 243.693V243.639Z" fill="black"/>
<path d="M294.864 255.054C299.587 254.68 304.273 253.93 308.878 252.81L323.336 249.961C324.457 249.747 323.994 248.02 322.874 248.18L308.842 250.94C304.25 252.066 299.576 252.822 294.864 253.202C294.628 253.202 294.402 253.296 294.235 253.462C294.068 253.629 293.974 253.856 293.974 254.092C293.974 254.328 294.068 254.555 294.235 254.722C294.402 254.889 294.628 254.982 294.864 254.982V255.054Z" fill="black"/>
<path d="M299.879 265.257C308.121 264.546 316.229 262.713 323.976 259.808C325.043 259.416 324.581 257.689 323.514 258.027C315.915 260.877 307.963 262.674 299.879 263.37C298.758 263.459 298.741 265.239 299.879 265.15V265.257Z" fill="black"/>
</svg>
